HIERARCHY
ROOT Hips
{
 OFFSET 0.000000 0.000000 0.000000
 CHANNELS 6 Xposition Yposition Zposition Yrotation Xrotation Zrotation
 JOINT Chest
 {
  OFFSET 0.000000 9.585900 0.002600
  CHANNELS 3 Yrotation Xrotation Zrotation
  JOINT Chest2
  {
   OFFSET 0.000000 9.601200 -0.005300
   CHANNELS 3 Yrotation Xrotation Zrotation
   JOINT Chest3
   {
    OFFSET 0.000000 9.561800 0.000000
    CHANNELS 3 Yrotation Xrotation Zrotation
    JOINT Chest4
    {
     OFFSET 0.000000 9.552100 0.000000
     CHANNELS 3 Yrotation Xrotation Zrotation
     JOINT Neck
     {
      OFFSET 0.000000 14.453000 0.000000
      CHANNELS 3 Yrotation Xrotation Zrotation
      JOINT Head
      {
       OFFSET 0.000000 8.936500 -0.011300
       CHANNELS 3 Yrotation Xrotation Zrotation
       End Site
       {
        OFFSET 0.000000 17.073600 -0.006000
       }
      }
     }
     JOINT RightCollar
     {
      OFFSET -2.921100 9.558500 0.000000
      CHANNELS 3 Yrotation Xrotation Zrotation
      JOINT RightShoulder
      {
       OFFSET -13.519700 0.000000 0.000000
       CHANNELS 3 Yrotation Xrotation Zrotation
       JOINT RightElbow
       {
        OFFSET 0.000000 -29.696600 0.000000
        CHANNELS 3 Yrotation Xrotation Zrotation
        JOINT RightWrist
        {
         OFFSET 0.000000 -24.004700 0.000000
         CHANNELS 3 Yrotation Xrotation Zrotation
         End Site
         {
          OFFSET 0.000000 -17.728500 0.000000
         }
        }
       }
      }
     }
     JOINT LeftCollar
     {
      OFFSET 2.921100 9.558500 0.000000
      CHANNELS 3 Yrotation Xrotation Zrotation
      JOINT LeftShoulder
      {
       OFFSET 13.519700 0.000000 0.000000
       CHANNELS 3 Yrotation Xrotation Zrotation
       JOINT LeftElbow
       {
        OFFSET 0.000000 -29.696600 0.000000
        CHANNELS 3 Yrotation Xrotation Zrotation
        JOINT LeftWrist
        {
         OFFSET 0.000000 -24.004700 0.000000
         CHANNELS 3 Yrotation Xrotation Zrotation
         End Site
         {
          OFFSET 0.000000 -17.728500 0.000000
         }
        }
       }
      }
     }
    }
   }
  }
 }
 JOINT RightHip
 {
  OFFSET -7.771700 -0.012900 -0.001300
  CHANNELS 3 Yrotation Xrotation Zrotation
  JOINT RightKnee
  {
   OFFSET 0.000000 -40.869800 0.001200
   CHANNELS 3 Yrotation Xrotation Zrotation
   JOINT RightAnkle
   {
    OFFSET 0.000000 -39.717900 0.002100
    CHANNELS 3 Yrotation Xrotation Zrotation
    JOINT RightToe
    {
     OFFSET 0.000000 -4.965400 11.033500
     CHANNELS 3 Yrotation Xrotation Zrotation
     End Site
     {
      OFFSET 0.000000 -1.423100 5.872300
     }
    }
   }
  }
 }
 JOINT LeftHip
 {
  OFFSET 7.771700 -0.012900 -0.001300
  CHANNELS 3 Yrotation Xrotation Zrotation
  JOINT LeftKnee
  {
   OFFSET 0.000000 -40.869800 0.001200
   CHANNELS 3 Yrotation Xrotation Zrotation
   JOINT LeftAnkle
   {
    OFFSET 0.000000 -39.717900 0.002100
    CHANNELS 3 Yrotation Xrotation Zrotation
    JOINT LeftToe
    {
     OFFSET 0.000000 -4.965400 11.033500
     CHANNELS 3 Yrotation Xrotation Zrotation
     End Site
     {
      OFFSET 0.000000 -1.423100 5.872300
     }
    }
   }
  }
 }
}
MOTION
Frames: 12
Frame Time: 0.008333
-11.891999 53.681987 22.372134 -174.768530 -30.759204 -10.010859 -1.525291 13.504861 4.229015 -0.773840 7.914486 2.039726 -0.923637 9.882567 2.536320 -0.775661 7.892497 2.028976 1.843767 20.378803 -2.184187 2.465764 -4.060659 -2.764205 1.255631 0.901936 -3.650361 -16.646011 -3.362894 6.142819 80.932490 -81.746257 -61.645382 11.379497 -2.319188 -22.149459 -8.824861 2.084575 -2.981189 4.542203 -1.520484 -1.809389 -107.011657 -68.543602 106.406510 10.341405 -10.375833 -3.189033 -19.030167 -33.800448 5.201432 9.252112 84.709084 6.365734 0.325058 -16.191696 -0.640733 0.035104 0.383357 -0.118819 -12.543827 -46.755049 10.018959 173.586121 80.532068 168.826646 -2.117531 -17.188840 3.251735 -0.115055 -1.011288 -0.005882
-11.878412 53.826850 22.365964 -174.772967 -30.707370 -10.025101 -1.524593 13.462716 4.251097 -0.774205 7.938230 2.050130 -0.919121 9.895320 2.552153 -0.770351 7.903666 2.045951 1.653385 20.304242 -2.247965 2.279820 -4.138116 -2.779093 1.252321 0.838391 -3.696320 -16.624074 -3.343087 6.124445 81.469040 -81.741446 -62.102855 11.326074 -2.341516 -22.075726 -8.828123 2.025462 -3.002223 4.715314 -1.399095 -1.772954 -107.574947 -68.771326 106.745948 10.347589 -10.447039 -3.332261 -19.108481 -33.827954 5.230627 9.047503 84.706539 6.184400 0.365365 -16.201016 -0.674854 0.001465 0.364399 -0.091337 -12.530829 -46.698842 10.117308 173.925843 80.657082 169.113557 -2.164490 -17.163265 3.317922 -0.088286 -1.029192 -0.002815
-11.865260 53.951708 22.359279 -174.778133 -30.645679 -10.033310 -1.530279 13.447796 4.272278 -0.768363 7.940565 2.062021 -0.918912 9.870527 2.547468 -0.769009 7.903904 2.050218 1.472327 20.263104 -2.288486 2.087406 -4.217412 -2.797692 1.278357 0.792711 -3.729585 -16.637066 -3.311648 6.122817 81.877852 -81.739122 -62.414969 11.261481 -2.380272 -22.031128 -8.792883 2.017098 -2.969800 4.813705 -1.325292 -1.777832 -107.972030 -68.969176 106.965464 10.373657 -10.517368 -3.465672 -19.151587 -33.877136 5.232970 8.621995 84.717286 5.819992 0.427567 -16.214002 -0.716956 0.025047 0.359834 -0.097929 -12.544716 -46.681352 10.193171 174.145050 80.745958 169.290773 -2.161395 -17.131904 3.349444 -0.092649 -1.057919 -0.004567
-11.853831 54.061443 22.348129 -174.776424 -30.604921 -10.034984 -1.535530 13.507896 4.302158 -0.765688 7.890020 2.056578 -0.918196 9.844372 2.543427 -0.768025 7.903929 2.054401 1.285862 20.223016 -2.334193 1.890909 -4.297869 -2.816483 1.305089 0.750812 -3.771747 -16.626092 -3.282520 6.111947 82.152632 -81.784208 -62.615545 11.184814 -2.426659 -22.004313 -8.737861 2.015418 -2.911385 4.856706 -1.279926 -1.809230 -108.260070 -69.148460 107.116340 10.436827 -10.596387 -3.585896 -19.229544 -33.910186 5.237797 8.715117 84.738882 5.931021 0.462639 -16.238649 -0.753078 0.034917 0.357566 -0.109408 -12.549491 -46.662646 10.235772 174.369457 80.810621 169.482420 -2.141243 -17.102871 3.372110 -0.101388 -1.095550 -0.018405
-11.876660 54.166573 22.311296 -174.951084 -30.766669 -9.752732 -1.406249 13.691255 4.112651 -0.764322 7.848121 2.049567 -0.902687 9.937608 2.591610 -0.775990 7.849714 2.039015 1.090599 20.155487 -2.398314 1.692517 -4.378177 -2.833268 1.365548 0.668568 -3.873414 -16.655242 -3.234345 6.137182 82.284461 -81.871176 -62.671591 11.095907 -2.472088 -21.979192 -8.705257 1.976271 -2.879788 4.915158 -1.237902 -1.817052 -108.559334 -69.326816 107.277935 10.539716 -10.685280 -3.692109 -19.012980 -33.869885 4.959974 9.446408 84.814774 6.618013 0.474984 -16.304638 -0.768371 0.009855 0.357547 -0.086161 -12.090215 -46.296133 9.913513 174.554119 81.019487 169.590864 -2.242084 -17.649619 3.432329 -0.042615 -0.621583 0.008717
-11.863781 54.246317 22.303572 -174.972504 -30.695898 -9.748829 -1.397491 13.660486 4.130227 -0.758338 7.860824 2.060786 -0.903079 9.909681 2.585941 -0.755388 7.915100 2.077936 0.875387 20.049061 -2.478144 1.494605 -4.456974 -2.848182 1.371987 0.564406 -3.962116 -16.657940 -3.218921 6.146617 82.313412 -81.991899 -62.618340 10.999270 -2.511539 -21.928587 -8.693970 1.892349 -2.866263 4.975332 -1.200525 -1.810012 -108.918565 -69.526628 107.492604 10.676846 -10.787912 -3.795522 -19.080462 -33.950854 5.014045 9.622938 84.856416 6.785003 0.477771 -16.339590 -0.774999 0.004484 0.361935 -0.087053 -12.139728 -46.325659 10.060136 175.182711 81.057078 170.115916 -2.262888 -17.654382 3.510917 -0.039463 -0.624859 0.008660
-11.852394 54.317465 22.291360 -174.983926 -30.654317 -9.744513 -1.394344 13.631878 4.135309 -0.755198 7.902251 2.074469 -0.895328 9.918124 2.599310 -0.750019 7.913523 2.085415 0.672663 19.971009 -2.540270 1.296828 -4.532038 -2.860797 1.388975 0.492183 -4.038221 -16.663320 -3.208404 6.164552 82.235161 -82.150027 -62.463686 10.909773 -2.536205 -21.815055 -8.672770 1.839464 -2.842015 4.985092 -1.187436 -1.828289 -109.243339 -69.742553 107.709520 10.832264 -10.908404 -3.903671 -19.140813 -34.007552 5.034753 9.817663 84.908617 6.987069 0.494733 -16.383782 -0.799586 0.004889 0.367439 -0.084693 -12.163058 -46.336548 10.170025 175.835766 81.080367 170.678604 -2.264032 -17.663364 3.594753 -0.044621 -0.631230 0.000991
-11.840876 54.377806 22.281253 -174.997802 -30.598148 -9.740616 -1.389369 13.626141 4.152508 -0.752352 7.901631 2.080067 -0.889326 9.924822 2.609722 -0.748403 7.897584 2.085392 0.475552 19.912088 -2.592803 1.098496 -4.600602 -2.870768 1.412555 0.443167 -4.107104 -16.664164 -3.200549 6.191090 82.080199 -82.347802 -62.245752 10.841967 -2.536563 -21.599696 -8.656884 1.803225 -2.823402 5.000187 -1.170688 -1.835462 -109.658894 -69.991705 108.016628 10.986727 -11.041688 -4.012756 -19.203884 -34.084908 5.065995 10.017124 84.968135 7.193716 0.509623 -16.431493 -0.823038 0.006298 0.376081 -0.082078 -12.178436 -46.380614 10.227211 176.151328 81.083479 170.964227 -2.252581 -17.674661 3.624546 -0.049481 -0.635689 -0.005302
-11.828806 54.429169 22.272548 -175.015853 -30.533020 -9.739969 -1.382009 13.613282 4.171804 -0.747112 7.931948 2.096223 -0.887620 9.882366 2.606680 -0.745403 7.893650 2.090530 0.279708 19.859363 -2.643726 0.901326 -4.661698 -2.879407 1.433982 0.398593 -4.175487 -16.647120 -3.190323 6.224704 81.925200 -82.576537 -62.053409 10.798353 -2.513716 -21.257459 -8.631247 1.774538 -2.794659 5.032748 -1.138399 -1.824087 -110.245985 -70.276139 108.477288 11.137779 -11.176124 -4.128073 -19.266799 -34.175573 5.087937 10.205044 85.032211 7.416155 0.543957 -16.482351 -0.870921 0.013718 0.387957 -0.076752 -12.207889 -46.439130 10.314777 176.567850 81.078502 171.334674 -2.248413 -17.693848 3.665995 -0.052281 -0.633341 -0.007737
-11.817818 54.474674 22.261617 -175.029161 -30.483229 -9.739715 -1.376959 13.660981 4.198848 -0.742852 7.889784 2.094740 -0.884968 9.865985 2.608513 -0.742812 7.889758 2.094796 0.086298 19.813206 -2.693356 0.706583 -4.714846 -2.887490 1.446736 0.355998 -4.230630 -16.605983 -3.183592 6.254911 81.823131 -82.819872 -61.938654 10.768580 -2.479300 -20.796031 -8.601976 1.748293 -2.765057 5.063259 -1.109722 -1.809932 -110.873842 -70.550999 108.985770 11.289795 -11.299327 -4.243673 -19.324953 -34.251964 5.123763 10.311524 85.103067 7.529596 0.561085 -16.539621 -0.890488 0.014841 0.401153 -0.073761 -12.228541 -46.487441 10.377811 176.847716 81.062534 171.585100 -2.253611 -17.719884 3.699258 -0.049818 -0.627768 -0.012788
-11.807868 54.515254 22.248684 -175.036982 -30.446956 -9.740597 -1.377273 13.672183 4.211474 -0.740628 7.885349 2.098010 -0.882151 9.860444 2.612701 -0.741004 7.869587 2.090597 -0.100863 19.789779 -2.735277 0.515988 -4.759488 -2.896729 1.450092 0.335825 -4.251642 -16.549241 -3.192050 6.271632 81.788940 -83.075779 -61.901473 10.741556 -2.444558 -20.253778 -8.594816 1.732221 -2.760381 5.190133 -1.065848 -1.702512 -111.685084 -70.846116 109.617493 11.446107 -11.395144 -4.346152 -19.360545 -34.318199 5.144999 10.346857 85.179535 7.582616 0.580782 -16.598432 -0.909670 0.020284 0.415057 -0.075961 -12.246706 -46.526811 10.426668 177.078210 81.039511 171.791701 -2.254604 -17.747086 3.724776 -0.048839 -0.624513 -0.015788
-11.798285 54.549693 22.237636 -175.050845 -30.398582 -9.738700 -1.375222 13.669666 4.222952 -0.739090 7.879893 2.100656 -0.880210 9.853589 2.616068 -0.737758 7.851918 2.086982 -0.285855 19.768768 -2.780717 0.330884 -4.796751 -2.909732 1.477037 0.305432 -4.298878 -16.519469 -3.186496 6.314319 81.810846 -83.355712 -61.918384 10.719276 -2.417719 -19.669715 -8.568283 1.718865 -2.724122 5.275859 -1.045375 -1.648158 -112.398617 -71.087862 110.177793 11.614102 -11.454724 -4.433349 -19.397003 -34.402016 5.173126 10.384437 85.260659 7.636513 0.608263 -16.652980 -0.938581 0.018240 0.426124 -0.069724 -12.264491 -46.583241 10.488949 177.372848 81.012226 172.052601 -2.254545 -17.775121 3.764244 -0.052212 -0.617722 -0.020519
